<?xml version="1.0" standalone="no"?>
<!DOCTYPE svg PUBLIC "-//W3C//DTD SVG 20010904//EN"
 "http://www.w3.org/TR/2001/REC-SVG-20010904/DTD/svg10.dtd">
<svg version="1.0" xmlns="http://www.w3.org/2000/svg"
 width="512.000000pt" height="512.000000pt" viewBox="0 0 512.000000 512.000000"
 preserveAspectRatio="xMidYMid meet">
<metadata>
Created by potrace 1.14, written by Peter Selinger 2001-2017
</metadata>
<g transform="translate(0.000000,512.000000) scale(0.100000,-0.100000)"
fill="#000000" stroke="none">
<path d="M2370 5104 c-19 -2 -78 -9 -130 -15 -558 -63 -1094 -330 -1501 -746
-390 -399 -621 -867 -706 -1433 -23 -156 -23 -539 0 -693 72 -470 244 -873
527 -1232 89 -113 277 -303 393 -396 372 -300 798 -483 1287 -550 124 -18 506
-18 630 0 592 81 1094 332 1501 748 390 398 619 862 706 1430 12 78 16 175 16
348 0 257 -9 353 -58 571 -155 689 -613 1298 -1242 1653 -256 144 -574 251
-885 297 -98 14 -464 27 -538 18z m-1453 -1894 c50 -26 79 -50 113 -92 l45
-57 25 32 c43 57 94 99 150 126 50 23 66 26 170 26 110 0 118 -2 182 -33 36
-18 81 -49 99 -69 44 -51 86 -145 98 -223 7 -39 11 -273 11 -577 l0 -513 -210
0 -210 0 0 489 c0 432 -2 491 -16 505 -21 22 -47 20 -70 -5 -18 -20 -19 -45
-22 -505 l-3 -484 -204 0 -204 0 -3 491 c-3 472 -4 491 -22 505 -27 19 -42 18
-66 -6 -19 -19 -20 -33 -20 -505 l0 -485 -210 0 -210 0 0 533 c0 576 2 603 55
693 32 54 100 121 149 146 76 39 118 48 213 45 82 -3 99 -7 160 -37z m2970 0
c50 -26 79 -50 113 -92 l45 -57 25 32 c43 57 94 99 150 126 50 23 66 26 170
26 110 0 118 -2 182 -33 36 -18 81 -49 99 -69 44 -51 86 -145 98 -223 7 -39
11 -273 11 -577 l0 -513 -210 0 -210 0 0 489 c0 432 -2 491 -16 505 -21 22
-47 20 -70 -5 -18 -20 -19 -45 -22 -505 l-3 -484 -204 0 -204 0 -3 491 c-3
472 -4 491 -22 505 -27 19 -42 18 -66 -6 -19 -19 -20 -33 -20 -505 l0 -485
-210 0 -210 0 0 533 c0 576 2 603 55 693 32 54 100 121 149 146 76 39 118 48
213 45 82 -3 99 -7 160 -37z m-1417 -240 l0 -250 60 0 60 0 0 -185 0 -185 -60
0 -60 0 0 -260 0 -260 -205 0 -205 0 0 695 0 695 205 0 205 0 0 -250z m600
-445 l0 -695 -210 0 -210 0 0 695 0 695 210 0 210 0 0 -695z"/>
</g>
</svg>
